HIERARCHY
ROOT Hips
{
	OFFSET 0.000000 0.000000 0.000000
	CHANNELS 6 Xposition Yposition Zposition Zrotation Yrotation Xrotation 
	JOINT LHipJoint
	{
		OFFSET 0.000000 0.000000 0.000000
		CHANNELS 3 Zrotation Yrotation Xrotation
		JOINT LeftUpLeg
		{
			OFFSET 1.363060 -1.794630 0.839290
			CHANNELS 3 Zrotation Yrotation Xrotation
			JOINT LeftLeg
			{
				OFFSET 2.448110 -6.726130 0.000000
				CHANNELS 3 Zrotation Yrotation Xrotation
				JOINT LeftFoot
				{
					OFFSET 2.562200 -7.039590 0.000000
					CHANNELS 3 Zrotation Yrotation Xrotation
					JOINT LeftToeBase
					{
						OFFSET 0.157640 -0.433110 2.322550
						CHANNELS 3 Zrotation Yrotation Xrotation
						End Site
						{
							OFFSET 0.000000 0.000000 0.000000
						}
					}
				}
			}
		}
	}
	JOINT RHipJoint
	{
		OFFSET 0.000000 0.000000 0.000000
		CHANNELS 3 Zrotation Yrotation Xrotation
		JOINT RightUpLeg
		{
			OFFSET -1.305520 -1.794630 0.839290
			CHANNELS 3 Zrotation Yrotation Xrotation
			JOINT RightLeg
			{
				OFFSET -2.542530 -6.985550 0.000000
				CHANNELS 3 Zrotation Yrotation Xrotation
				JOINT RightFoot
				{
					OFFSET -2.568260 -7.056230 0.000000
					CHANNELS 3 Zrotation Yrotation Xrotation
					JOINT RightToeBase
					{
						OFFSET -0.164730 -0.452590 2.363150
						CHANNELS 3 Zrotation Yrotation Xrotation
						End Site
						{
							OFFSET 0.000000 0.000000 0.000000
						}
					}
				}
			}
		}
	}
	JOINT LowerBack
	{
		OFFSET 0.000000 0.000000 0.000000
		CHANNELS 3 Zrotation Yrotation Xrotation
		JOINT Spine
		{
			OFFSET 0.028270 2.035590 -0.193380
			CHANNELS 3 Zrotation Yrotation Xrotation
			JOINT Spine1
			{
				OFFSET 0.056720 2.048850 -0.042750
				CHANNELS 3 Zrotation Yrotation Xrotation
				JOINT Neck
				{
					OFFSET 0.000000 0.000000 0.000000
					CHANNELS 3 Zrotation Yrotation Xrotation
					JOINT Neck1
					{
						OFFSET -0.054170 1.746240 0.172020
						CHANNELS 3 Zrotation Yrotation Xrotation
						JOINT Head
						{
							OFFSET 0.104070 1.761360 -0.123970
							CHANNELS 3 Zrotation Yrotation Xrotation
							End Site
							{
								OFFSET 0.000000 0.000000 0.000000
							}
						}
					}
				}
				JOINT LeftShoulder
				{
					OFFSET 0.000000 0.000000 0.000000
					CHANNELS 3 Zrotation Yrotation Xrotation
					JOINT LeftArm
					{
						OFFSET 3.362410 1.200890 -0.311210
						CHANNELS 3 Zrotation Yrotation Xrotation
						JOINT LeftForeArm
						{
							OFFSET 4.983000 -0.000000 -0.000000
							CHANNELS 3 Zrotation Yrotation Xrotation
							JOINT LeftHand
							{
								OFFSET 3.483560 -0.000000 -0.000000
								CHANNELS 3 Zrotation Yrotation Xrotation
								JOINT LeftFingerBase
								{
									OFFSET 0.000000 0.000000 0.000000
									CHANNELS 3 Zrotation Yrotation Xrotation
									JOINT LeftHandIndex1
									{
										OFFSET 0.715260 -0.000000 -0.000000
										CHANNELS 3 Zrotation Yrotation Xrotation
										End Site
										{
											OFFSET 0.000000 0.000000 0.000000
										}
									}
								}
								JOINT LThumb
								{
									OFFSET 0.000000 0.000000 0.000000
									CHANNELS 3 Zrotation Yrotation Xrotation
									End Site
									{
										OFFSET 0.000000 0.000000 0.000000
									}
								}
							}
						}
					}
				}
				JOINT RightShoulder
				{
					OFFSET 0.000000 0.000000 0.000000
					CHANNELS 3 Zrotation Yrotation Xrotation
					JOINT RightArm
					{
						OFFSET -3.136600 1.374050 -0.404650
						CHANNELS 3 Zrotation Yrotation Xrotation
						JOINT RightForeArm
						{
							OFFSET -5.241900 -0.000000 -0.000000
							CHANNELS 3 Zrotation Yrotation Xrotation
							JOINT RightHand
							{
								OFFSET -3.444170 -0.000000 -0.000000
								CHANNELS 3 Zrotation Yrotation Xrotation
								JOINT RightFingerBase
								{
									OFFSET 0.000000 0.000000 0.000000
									CHANNELS 3 Zrotation Yrotation Xrotation
									JOINT RightHandIndex1
									{
										OFFSET -0.622530 -0.000000 -0.000000
										CHANNELS 3 Zrotation Yrotation Xrotation
										End Site
										{
											OFFSET 0.000000 0.000000 0.000000
										}
									}
								}
								JOINT RThumb
								{
									OFFSET 0.000000 0.000000 0.000000
									CHANNELS 3 Zrotation Yrotation Xrotation
									End Site
									{
										OFFSET 0.000000 0.000000 0.000000
									}
								}
							}
						}
					}
				}
			}
		}
	}
}
MOTION
Frames: 4
Frame Time: 0.008333
2.460005 16.933890 0.322005 44.904170 -88.224926 -43.499970 -9.331295 3.220191 2.916086 -4.510497 2.096414 -8.926995 -1.634571 0.416009 19.929918 1.788103 10.573387 -9.621400 -0.486900 0.000000 -46.741000 11.607708 -1.125547 -0.019485 -0.521139 -11.053280 -7.038960 0.686858 -0.854525 24.224193 -2.343921 -10.959494 -9.663731 0.039599 0.000000 -70.991000 -2.140857 -5.245094 -4.921244 -0.651487 -5.230190 -3.190151 -4.693778 -5.283591 2.038895 11.394759 -26.150296 -8.870467 -1.653019 -0.119618 -0.219833 0.000000 0.000000 0.000000 13.247465 7.871774 -1.364060 -42.361725 15.207588 -20.156335 -179.918098 -67.391918 179.992801 0.213017 -2.936369 -0.003621 0.098012 0.521425 -0.000000 0.000000 0.000000 0.000000 0.000000 0.000000 0.000000 8.881619 -20.987162 -2.834183 53.819831 -4.837446 1.486253 179.487500 77.628781 179.965442 -9.615419 14.948809 -1.336600 0.195258 -0.554605 0.000000 0.000000 0.000000 0.000000 0.000000 0.000000 0.000000 
2.440067 16.931841 0.315948 35.273209 -87.618384 -33.923200 -9.373992 3.351689 3.138151 -4.526327 1.246289 -8.977786 -1.653491 0.480518 19.989588 1.791595 10.537558 -9.670789 -0.489200 0.000001 -46.733500 11.537970 -1.009141 -0.149025 -0.520614 -11.472208 -6.578780 0.610432 -0.768065 24.032944 -2.448051 -11.546169 -9.678110 0.035100 0.000000 -70.833100 -2.395079 -5.161624 -5.006690 -0.718421 -5.130296 -3.204132 -4.727447 -5.183253 2.035831 11.375110 -26.228231 -8.912904 -1.674871 -0.120782 -0.231082 0.000000 0.000000 0.000000 13.176304 7.941235 -1.389345 -42.242671 15.136977 -19.953647 -179.923528 -67.228768 179.993113 0.139816 -2.981218 -0.001362 0.101705 0.521979 -0.000000 0.000000 0.000000 0.000000 0.000000 0.000000 0.000000 9.051792 -21.018126 -2.803875 53.979023 -4.849825 1.627095 179.502772 78.402811 179.966291 -9.771909 14.950106 -1.357940 0.199091 -0.547375 0.000000 0.000000 0.000000 0.000000 0.000000 0.000000 0.000000 
2.418773 16.931229 0.310230 28.384058 -86.807537 -27.084877 -9.438348 3.432269 3.361954 -4.537475 0.353664 -8.993121 -1.658721 0.520025 19.987133 1.785406 10.456885 -9.681727 -0.484000 0.000000 -46.725400 11.443508 -0.950368 -0.268902 -0.519000 -11.933405 -6.092247 0.551831 -0.699997 23.762227 -2.560445 -12.175040 -9.662919 0.021400 -0.000000 -70.646700 -2.695377 -5.113048 -5.099484 -0.788975 -5.062266 -3.216275 -4.757943 -5.115857 2.035858 11.360913 -26.316351 -8.957519 -1.695434 -0.121807 -0.243019 0.000000 0.000000 0.000000 13.119115 7.986982 -1.414687 -42.104469 15.048081 -19.739140 -179.929284 -67.050574 179.993583 0.041782 -3.031341 0.001792 0.106258 0.522762 -0.000000 0.000000 0.000000 0.000000 0.000000 0.000000 0.000000 9.224584 -21.080059 -2.775547 54.131013 -4.768813 1.762173 179.520148 79.201484 179.967119 -9.914909 14.912396 -1.373886 0.202523 -0.539626 0.000000 0.000000 0.000000 0.000000 0.000000 0.000000 0.000000 
2.396457 16.932026 0.304655 23.423165 -85.855606 -22.178073 -9.493496 3.480035 3.583083 -4.538135 -0.564983 -8.959778 -1.656785 0.539947 19.909176 1.770677 10.335323 -9.650946 -0.470500 0.000001 -46.725700 11.354946 -0.930790 -0.380380 -0.511779 -12.421282 -5.569864 0.504158 -0.644673 23.413536 -2.679129 -12.840025 -9.614483 -0.003200 0.000001 -70.443200 -3.008816 -5.087689 -5.192582 -0.860142 -5.016399 -3.226427 -4.789463 -5.070844 2.037859 11.354122 -26.402879 -9.003994 -1.715967 -0.122810 -0.255619 0.000000 0.000000 0.000000 13.075146 8.021465 -1.438533 -41.940098 14.945025 -19.520377 -179.935499 -66.859110 179.994184 -0.075953 -3.080289 0.005643 0.111506 0.523622 -0.000000 0.000000 0.000000 0.000000 0.000000 0.000000 0.000000 9.405116 -21.153984 -2.748458 54.271890 -4.594181 1.885665 179.539370 80.020465 179.967942 -10.038910 14.842212 -1.383941 0.205464 -0.531516 0.000000 0.000000 0.000000 0.000000 0.000000 0.000000 0.000000 
